# xmcd
#
# Track frame offsets: 
#        150
#        15260
#        31238
#        45678
#        59925
#        72530
#        86753
#        101793
#        113894
#        127440
#        142343
#        154802
#        167369
#        182337
#        196794
#        211772
#        224276
#        237327
#        250811
#        265406
#        278634
#        292979
#        306992
#        322146
#        338162
#
# Disc length: 4718 seconds
#
# Revision: 0
# Processed by: cddbd v1.5.2PL0 Copyright (c) Steve Scherf et al.
# Submitted via: ExactAudioCopyFreeDBPlugin 1.0
#
DISCID=83126c19
DTITLE=Various Artist - Really the Blues - Disc 10
DYEAR=1900
DGENRE=20s
TTITLE0=Louis Armstrong with the Luis Russell Orchestra - Dallas Blues
TTITLE1=Jack Purvis Orchestra - Copyin' Louis
TTITLE2=Jimmy Dorsey - Prayin' the Blues
TTITLE3=Ethel Waters - Waiting at the End of the Road
TTITLE4=Henry Spaulding - Biddle Street Blues
TTITLE5=Wilmer Watts and The Lonely Eagles - Been on the Job Too Long
TTITLE6=Jabbo Smith - Sweet and Low Blues
TTITLE7=Victoria Spivey - Blood Hound Blues
TTITLE8=Tiny Parham - Stompin' On Down
TTITLE9=Monarch Jazz Quartet of Norfolk - What's the Matter Now
TTITLE10=Clara Smith - Let's Get Loose
TTITLE11=Walter Page's Blue Devils - Blue Devil Blues
TTITLE12=Jones Collins Astoria Hot 8 - Tip Easy Blues
TTITLE13=Whyte's Chocolate Beau Brummels - West End Blues
TTITLE14=Blind Lemon Jefferson - Pneumonia Blues
TTITLE15=Fats Waller - Numb Fumblin'
TTITLE16=Jimmy Noone - Apex Blues (No. 2)
TTITLE17=Bessie Johnson - The Great Reaping Day
TTITLE18=Speckled Red - House Dance Blues
TTITLE19=Clarence Ashley - Dark Holler Blues
TTITLE20=Cleo Gibson - Nothing but Blues
TTITLE21=Hambone Willie Newbern - Roll and Tumble Blues
TTITLE22=Clara Smith with Charlie Green - Its Tight Like That
TTITLE23=Henry Thomas - Don't Leave Me Here
TTITLE24=Julia Lee - He's Tall, Dark, and Handsome
EXTD=
EXTT0=
EXTT1=
EXTT2=
EXTT3=
EXTT4=
EXTT5=
EXTT6=
EXTT7=
EXTT8=
EXTT9=
EXTT10=
EXTT11=
EXTT12=
EXTT13=
EXTT14=
EXTT15=
EXTT16=
EXTT17=
EXTT18=
EXTT19=
EXTT20=
EXTT21=
EXTT22=
EXTT23=
EXTT24=
PLAYORDER=
